Coordinates
version=1
nRows=11
nColumns=36
inDegrees=yes

Units are S.I. units (second, meters, Newtons, ...)
If the header above contains a line with 'inDegrees', this indicates whether rotational values are in degrees (yes) or radians (no).

endheader
time	pelvis_tilt	pelvis_list	pelvis_rotation	pelvis_tx	pelvis_ty	pelvis_tz	hip_flexion_r	hip_adduction_r	hip_rotation_r	knee_angle_r	knee_angle_r_beta	ankle_angle_r	subtalar_angle_r	mtp_angle_r	hip_flexion_l	hip_adduction_l	hip_rotation_l	knee_angle_l	knee_angle_l_beta	ankle_angle_l	subtalar_angle_l	mtp_angle_l	lumbar_extension	lumbar_bending	lumbar_rotation	arm_flex_r	arm_add_r	arm_rot_r	elbow_flex_r	pro_sup_r	arm_flex_l	arm_add_l	arm_rot_l	elbow_flex_l	pro_sup_l
      4.75000000	      4.30240009	     -2.30398208	      4.99097799	      1.27662473	      0.99271544	     -0.23877325	     -1.09191533	     -0.11141430	    -12.54135063	     10.50405535	      0.18333035	     12.51016751	     -6.29554018	     -7.49999987	     -6.61048017	    -14.39663351	    -15.95773120	      0.54237091	      0.00946616	      3.13772421	     -3.25455112	     -7.49999987	     -7.32953231	      7.83742678	     -1.99883898	      1.24274446	    -33.00253743	     15.54823324	     97.07923620	     89.45602282	    -15.31747110	    -19.27882209	     12.45155750	     78.47464734	     94.08369873
      4.76666670	      4.31288846	     -2.10805435	      5.25288998	      1.27070465	      0.99365723	     -0.23592387	     -1.33756197	     -0.07657367	    -12.68125503	      9.85790386	      0.17205288	     12.28078988	     -6.18370210	     -7.49999987	     -6.21166621	    -14.28938899	    -16.05422136	      0.51012507	      0.00890336	      2.66289980	     -3.13599086	     -7.49999987	     -7.07531907	      7.87500501	     -1.91544165	      0.80179648	    -33.08346035	     15.84366152	     96.86584020	     89.45930702	    -15.61579914	    -18.82591522	     12.80922257	     78.35680016	     94.01640734
      4.78333330	      4.22830598	     -1.91285585	      5.59206206	      1.26653419	      0.99624688	     -0.23276664	     -1.31380419	     -0.06425803	    -12.95670295	      9.45863444	      0.16508431	     11.88903323	     -6.08990999	     -7.49999987	     -5.56101691	    -14.18570846	    -16.04833871	      0.52729087	      0.00920296	      2.14084908	     -3.25158183	     -7.49999987	     -6.76882370	      8.00252695	     -1.74964927	      0.64133844	    -33.09111050	     16.09930798	     96.11136489	     89.31570707	    -15.18699160	    -18.41338158	     13.47528439	     76.93499386	     93.58268924
      4.80000000	      4.37485290	     -1.71192195	      5.83645777	      1.26559601	      0.99568411	     -0.22668134	     -1.46095444	      0.01086733	    -13.08091064	      9.13033161	      0.15935435	     11.59609955	     -6.18761640	     -7.49999987	     -5.16252763	    -14.10452127	    -16.12649520	      0.56961342	      0.00994163	      1.41239411	     -3.60957504	     -7.49999987	     -6.83768115	      7.99926111	     -1.31582999	     -0.06439320	    -32.91377539	     16.03957887	     95.94635046	     88.94744189	    -14.43150945	    -18.91257003	     15.18366080	     76.09954385	     92.59586714
      4.81666670	      4.53319863	     -1.43137021	      5.99113243	      1.26158513	      0.99671931	     -0.22875322	     -1.45227475	     -0.07964319	    -13.23976323	      9.08799925	      0.15861551	     11.37172891	     -6.17545625	     -7.49999987	     -4.72173434	    -13.87594008	    -16.34509888	      0.70689723	      0.01233768	      1.23353640	     -3.66039558	     -7.49999987	     -7.24524245	      8.00843270	     -1.24704118	     -0.22379163	    -32.87225328	     16.17737233	     95.91591049	     88.94663375	    -14.50582725	    -18.88149423	     15.36064419	     76.12089272	     92.57089383
      4.83333330	      5.11363495	     -1.09587518	      6.05613168	      1.26572139	      0.99754138	     -0.22539676	     -2.02805655	     -0.20584099	    -13.40739846	      9.00571061	      0.15717930	     11.28873277	     -6.17033657	     -7.49999987	     -5.02360975	    -13.55508192	    -16.36447711	      0.86040632	      0.01501692	      1.07035539	     -3.95442819	     -7.49999987	     -7.78972351	      7.96369626	     -0.98445390	     -0.69215333	    -33.18606661	     16.59056413	     96.38407259	     88.91219893	    -14.79461243	    -19.83313190	     16.82158456	     77.31105482	     92.30133923
      4.85000000	      5.31420359	     -0.77015510	      5.97610912	      1.25645602	      1.00066462	     -0.22436382	     -2.01256616	     -0.43074754	    -13.43058995	      9.13387474	      0.15941619	     11.20585581	     -6.13132516	     -7.49999987	     -4.89470440	    -13.20948911	    -16.31476790	      1.17314452	      0.02047523	      1.11151743	     -4.14557076	     -7.49999987	     -8.11492384	      8.02756161	      0.86972776	     -3.01974806	    -33.20774325	     14.26493857	     96.89625561	     88.03473332	    -12.29232403	    -20.91160381	     21.14179826	     76.19795399	     88.63594216
      4.86666670	      5.77419650	     -0.45803000	      5.87888109	      1.25545039	      1.00830364	     -0.22368280	     -2.47366456	     -0.60887496	    -13.38847258	      8.94542726	      0.15612716	     11.01007685	     -6.04994167	     -7.49999987	     -5.17404834	    -12.83847879	    -16.34460995	      1.50910540	      0.02633886	      1.37818974	     -4.40679833	     -7.49999987	     -8.50123627	      7.96673205	      1.08020342	     -3.26429995	    -33.01989535	     14.22956583	     95.46667234	     87.97991614	    -11.88414504	    -20.80920392	     21.31912299	     75.42443960	     88.41779175
      4.88333330	      6.14034722	     -0.13216425	      5.80100775	      1.24625892	      1.01066404	     -0.22259988	     -2.61500868	     -0.85402943	    -13.30923577	      9.07227885	      0.15834114	     10.77929340	     -6.07397081	     -7.49999987	     -5.25566119	    -12.50665987	    -16.22450558	      2.26632677	      0.03955486	      1.59444823	     -4.69159835	     -7.49999987	     -9.04915819	      7.94973023	      1.59897297	     -3.25063615	    -32.97970456	     14.27970755	     94.30491695	     87.95627338	    -11.12031519	    -20.72842919	     21.28007902	     75.23269313	     88.32878778
      4.90000000	      6.84364503	      0.27760574	      5.74157224	      1.24497715	      1.01080788	     -0.22205621	     -3.20679578	     -1.12865305	    -13.12809807	      9.00706717	      0.15720298	     10.43813264	     -6.34955045	     -7.49999987	     -5.85614176	    -12.01280142	    -16.09239615	      2.91925417	      0.05095060	      1.85623615	     -5.17980779	     -7.49999987	     -9.63262828	      7.83110977	      2.03079042	     -2.87654143	    -32.79196353	     14.52285989	     92.27217670	     85.39285251	     -9.45048352	    -21.19990259	     22.87147821	     74.42517619	     85.45293718
      4.91666670	      7.46588558	      0.65144491	      5.61620313	      1.24513324	      1.01226381	     -0.22090963	     -3.79491064	     -1.41402640	    -12.98711259	      8.87098596	      0.15482791	     10.35780800	     -6.43608543	     -7.49999987	     -6.57312773	    -11.57975388	    -15.99402235	      3.67180427	      0.06408507	      2.19944183	     -5.72176720	     -7.49999987	    -10.11073918	      7.66049655	      2.31901445	     -3.11890405	    -32.60304437	     14.33749588	     91.23867029	     85.17532144	     -8.66727403	    -21.32844139	     22.76215221	     74.03240357	     85.14621896
